<?xml version="1.0" encoding="utf-8"?>
<!-- Generator: Adobe Illustrator 22.1.0, SVG Export Plug-In . SVG Version: 6.00 Build 0)  -->
<svg version="1.1" id="Layer_1" xmlns="http://www.w3.org/2000/svg" xmlns:xlink="http://www.w3.org/1999/xlink" x="0px" y="0px"
	 viewBox="0 0 1498.3 507.3" style="enable-background:new 0 0 1498.3 507.3;" xml:space="preserve">
<style type="text/css">
	.st0{opacity:0.78;}
	.st1{opacity:0.54;}
	.st2{fill:#1FA6FF;}
	.st3{fill:none;stroke:#0066FF;stroke-width:6;stroke-miterlimit:10;}
	.st4{fill:none;stroke:#1FA6FF;stroke-width:7;stroke-miterlimit:10;}
	.st5{fill:none;stroke:#0066FF;stroke-width:7;stroke-miterlimit:10;}
	.st6{fill:#1F72FF;}
	.st7{fill:#18CCFF;}
	.st8{fill:#16C3F4;}
	.st9{fill:#1FA6FF;stroke:#1FA6FF;stroke-width:7;stroke-miterlimit:10;}
</style>
<g class="st0">
	<g class="st1">
		<path d="M-23.1,289.6"/>
	</g>
	<g>
		<path class="st2" d="M-30.1,282.6"/>
	</g>
</g>
<g class="st0">
	
		<image style="overflow:visible;opacity:0.75;" width="533" height="90" xlink:href="B96717BD.png"  transform="matrix(1 0 0 1 32.7462 118.5968)">
	</image>
	<g>
		<polyline class="st3" points="43.2,184.5 97,129.8 542.8,129.8 		"/>
	</g>
</g>
<g class="st0">
	
		<image style="overflow:visible;opacity:0.75;" width="627" height="98" xlink:href="B96717BF.png"  transform="matrix(1 0 0 1 35.7462 32.5974)">
	</image>
	<g>
		<polyline class="st3" points="44,105.3 388,105.3 448.8,44.5 640.4,44.5 		"/>
	</g>
</g>
<g class="st0">
	
		<image style="overflow:visible;opacity:0.75;" width="438" height="103" xlink:href="B96717BA.png"  transform="matrix(1 0 0 1 39.5699 321.5891)">
	</image>
	<g>
		<polyline class="st3" points="50,399.5 115.7,332.9 414.4,332.9 431,349.5 455.5,349.5 		"/>
	</g>
</g>
<g class="st0">
	
		<image style="overflow:visible;opacity:0.75;" width="318" height="121" xlink:href="B96717BB.png"  transform="matrix(1 0 0 1 49.2597 364.2868)">
	</image>
	<g>
		<polyline class="st3" points="59.5,460.8 144.9,375.5 335.2,375.5 343.1,383.4 		"/>
	</g>
</g>
<g class="st0">
	
		<image style="overflow:visible;opacity:0.84;" width="197" height="197" xlink:href="B96717C5.png"  transform="matrix(1 0 0 1 562.7272 -45.436)">
	</image>
	<g>
		
			<image style="overflow:visible;opacity:0.75;" width="65" height="66" xlink:href="B96717C7.png"  transform="matrix(1 0 0 1 628.7587 19.5955)">
		</image>
		<g>
			<circle class="st2" cx="654" cy="45.7" r="13.7"/>
			<circle class="st4" cx="654" cy="45.7" r="13.7"/>
		</g>
	</g>
</g>
<g class="st0">
	
		<image style="overflow:visible;opacity:0.75;" width="65" height="65" xlink:href="B96717CA.png"  transform="matrix(1 0 0 1 531.7462 104.5968)">
	</image>
	<g>
		<circle class="st5" cx="557.4" cy="129.9" r="13.7"/>
	</g>
</g>
<g class="st0">
	
		<image style="overflow:visible;opacity:0.75;" width="65" height="66" xlink:href="B96717CB.png"  transform="matrix(1 0 0 1 442.5695 323.5891)">
	</image>
	<g>
		<circle class="st5" cx="468.1" cy="349.8" r="13.7"/>
	</g>
</g>
<g class="st0">
	
		<image style="overflow:visible;opacity:0.84;" width="197" height="197" xlink:href="B96717CD.png"  transform="matrix(1 0 0 1 262.2282 302.2564)">
	</image>
	<g>
		
			<image style="overflow:visible;opacity:0.75;" width="66" height="66" xlink:href="CBE66E56.png"  transform="matrix(1 0 0 1 327.2597 367.2879)">
		</image>
		<g>
			<circle class="st2" cx="353.2" cy="393.1" r="13.7"/>
			<circle class="st4" cx="353.2" cy="393.1" r="13.7"/>
		</g>
	</g>
</g>
<g>
	
		<image style="overflow:visible;opacity:0.54;" width="334" height="333" xlink:href="CBE66E51.png"  transform="matrix(1 0 0 1 589.7503 90.0959)">
	</image>
	<g>
		
			<image style="overflow:visible;" width="349" height="349" xlink:href="CBE66E52.png"  transform="matrix(1 0 0 1 574.2621 74.6077)">
		</image>
	</g>
</g>
<g>
	
		<image style="overflow:visible;" width="303" height="307" xlink:href="CBE66E50.png"  transform="matrix(1 0 0 1 597.2265 95.0778)">
	</image>
	<g>
		<g>
			<g>
				<path class="st6" d="M671.7,142.9v210.9h-27.2V142.9H671.7z"/>
				<g>
					<path class="st7" d="M667.2,142.9c0,23.9,0,47.7,0,71.6c0,37.7,0,75.4,0,113c0,8.8,0,17.5,0,26.3c1.5-1.5,3-3,4.5-4.5
						c-9.1,0-18.2,0-27.2,0c1.5,1.5,3,3,4.5,4.5c0-23.9,0-47.7,0-71.6c0-37.7,0-75.4,0-113c0-8.8,0-17.5,0-26.3
						c-1.5,1.5-3,3-4.5,4.5c9.1,0,18.2,0,27.2,0c5.8,0,5.8-9,0-9c-9.1,0-18.2,0-27.2,0c-2.4,0-4.5,2.1-4.5,4.5c0,23.9,0,47.7,0,71.6
						c0,37.7,0,75.4,0,113c0,8.8,0,17.5,0,26.3c0,2.4,2.1,4.5,4.5,4.5c9.1,0,18.2,0,27.2,0c2.4,0,4.5-2.1,4.5-4.5
						c0-23.9,0-47.7,0-71.6c0-37.7,0-75.4,0-113c0-8.8,0-17.5,0-26.3C676.2,137.1,667.2,137.1,667.2,142.9z"/>
				</g>
			</g>
			<g>
				<path class="st6" d="M759.3,166.1h-64.2v-23.2h156.2v23.2h-64.5v187.8h-27.5V166.1z"/>
				<g>
					<path class="st7" d="M759.3,161.6c-21.4,0-42.8,0-64.2,0c1.5,1.5,3,3,4.5,4.5c0-7.7,0-15.4,0-23.2c-1.5,1.5-3,3-4.5,4.5
						c45.5,0,91.1,0,136.6,0c6.5,0,13,0,19.6,0c-1.5-1.5-3-3-4.5-4.5c0,7.7,0,15.4,0,23.2c1.5-1.5,3-3,4.5-4.5c-21.5,0-43,0-64.5,0
						c-2.4,0-4.5,2.1-4.5,4.5c0,21.1,0,42.3,0,63.4c0,33.7,0,67.4,0,101.1c0,7.7,0,15.5,0,23.2c1.5-1.5,3-3,4.5-4.5
						c-9.2,0-18.4,0-27.5,0c1.5,1.5,3,3,4.5,4.5c0-21.1,0-42.3,0-63.4c0-33.7,0-67.4,0-101.1c0-7.7,0-15.5,0-23.2c0-5.8-9-5.8-9,0
						c0,21.1,0,42.3,0,63.4c0,33.7,0,67.4,0,101.1c0,7.7,0,15.5,0,23.2c0,2.4,2.1,4.5,4.5,4.5c9.2,0,18.4,0,27.5,0
						c2.4,0,4.5-2.1,4.5-4.5c0-21.1,0-42.3,0-63.4c0-33.7,0-67.4,0-101.1c0-7.7,0-15.5,0-23.2c-1.5,1.5-3,3-4.5,4.5
						c21.5,0,43,0,64.5,0c2.4,0,4.5-2.1,4.5-4.5c0-7.7,0-15.4,0-23.2c0-2.4-2.1-4.5-4.5-4.5c-45.5,0-91.1,0-136.6,0
						c-6.5,0-13,0-19.6,0c-2.4,0-4.5,2.1-4.5,4.5c0,7.7,0,15.4,0,23.2c0,2.4,2.1,4.5,4.5,4.5c21.4,0,42.8,0,64.2,0
						C765.1,170.6,765.1,161.6,759.3,161.6z"/>
				</g>
			</g>
		</g>
	</g>
</g>
<g class="st0">
	
		<image style="overflow:visible;opacity:0.75;" width="65" height="65" xlink:href="CBE66E6E.png"  transform="matrix(1 0 0 1 26.2597 444.2868)">
	</image>
	<g>
		<circle class="st5" cx="51.8" cy="469.7" r="13.7"/>
	</g>
</g>
<g class="st0">
	
		<image style="overflow:visible;opacity:0.75;" width="65" height="65" xlink:href="CBE66E71.png"  transform="matrix(1 0 0 1 17.5699 383.5891)">
	</image>
	<g>
		<circle class="st5" cx="43.1" cy="408.9" r="13.7"/>
	</g>
</g>
<g class="st0">
	
		<image style="overflow:visible;opacity:0.75;" width="65" height="66" xlink:href="CBE66E72.png"  transform="matrix(1 0 0 1 10.7462 165.5968)">
	</image>
	<g>
		<circle class="st5" cx="36.3" cy="191.5" r="13.7"/>
	</g>
</g>
<g class="st0">
	
		<image style="overflow:visible;opacity:0.75;" width="65" height="65" xlink:href="CBE66E70.png"  transform="matrix(1 0 0 1 6.7459 79.5974)">
	</image>
	<g>
		<circle class="st5" cx="32.3" cy="105.3" r="13.7"/>
	</g>
</g>
<g>
	
		<image style="overflow:visible;opacity:0.5;" width="474" height="181" xlink:href="CBE66E76.png"  transform="matrix(1 0 0 1 108.7383 140.5896)">
	</image>
	<g>
		<g>
			<path class="st8" d="M199.5,294.2v-69.8c0-2.6-0.1-4.8-0.2-6.7c-0.1-1.9-0.4-3.5-0.8-4.8c-0.4-1.3-1-2.2-1.8-2.9
				c-0.8-0.6-1.8-1-3.2-1c-2.1,0-4.1,1.4-6.2,4.2c-2,2.8-4.3,7.6-6.9,14.4v66.5h-21.1v-69.8c0-2.6-0.1-4.8-0.2-6.7
				c-0.1-1.9-0.4-3.5-0.8-4.8c-0.4-1.3-1-2.2-1.8-2.9c-0.8-0.6-1.9-1-3.2-1c-1.8,0-3.7,1.4-5.9,4.2c-2.2,2.8-4.5,7.6-7.2,14.4v66.5
				H119V191.6h18.3l0.4,14.9c1.5-3,3-5.6,4.4-7.8c1.5-2.2,3.1-3.9,4.7-5.3c1.7-1.4,3.5-2.4,5.4-3c1.9-0.6,4.1-0.9,6.5-0.9
				c5.7,0,10.1,1.5,13.1,4.5c3,3,4.7,7.1,5.1,12.5c1.6-3,3.2-5.6,4.8-7.8c1.6-2.2,3.2-3.9,4.9-5.3c1.7-1.4,3.6-2.4,5.5-3
				c2-0.6,4.2-0.9,6.6-0.9c7.5,0,13,2.6,16.5,7.8c3.6,5.2,5.3,12.9,5.3,23.2v73.6H199.5z"/>
			<path class="st8" d="M305,294.2l-0.6-13.4c-2.2,2.3-4.4,4.4-6.8,6.3c-2.4,1.9-4.9,3.6-7.8,5c-2.8,1.4-5.9,2.5-9.2,3.3
				c-3.3,0.8-7,1.2-10.9,1.2c-5.2,0-9.9-0.8-13.8-2.3c-4-1.5-7.3-3.7-10-6.5c-2.7-2.8-4.7-6.1-6.1-10c-1.4-3.9-2.1-8.2-2.1-12.9
				c0-4.8,1-9.3,3.1-13.4c2.1-4.1,5.2-7.6,9.4-10.6c4.2-3,9.4-5.3,15.7-7c6.3-1.7,13.7-2.5,22.1-2.5h13.4v-6.2c0-2.6-0.4-5-1.1-7.1
				c-0.7-2.1-1.9-3.9-3.6-5.4c-1.6-1.5-3.8-2.6-6.4-3.4c-2.6-0.8-5.9-1.2-9.7-1.2c-6.1,0-12,0.7-17.9,2.1
				c-5.9,1.4-11.6,3.3-17.1,5.8v-19.7c4.9-2,10.6-3.6,17-4.8c6.4-1.3,13.1-1.9,20-1.9c7.6,0,14.1,0.7,19.6,2.2
				c5.4,1.4,9.9,3.6,13.5,6.5c3.5,2.9,6.1,6.5,7.8,10.8c1.7,4.3,2.5,9.4,2.5,15.2v70H305z M301.5,248.9h-15c-4.2,0-7.7,0.4-10.6,1.2
				c-2.9,0.8-5.2,1.9-7.1,3.3c-1.8,1.4-3.1,3-4,4.9c-0.8,1.9-1.3,3.8-1.3,5.9c0,4.2,1.3,7.4,4,9.5c2.7,2.2,6.4,3.3,11,3.3
				c3.4,0,7-1.2,10.7-3.7c3.7-2.5,7.8-6.1,12.2-10.7V248.9z"/>
			<path class="st8" d="M417.8,294.2L380,242.9v51.3h-24.6V151.6H380V235l35.8-43.4h30.8L405,238.4l45,55.8H417.8z"/>
			<path class="st8" d="M557.2,235c0,1.7-0.1,3.9-0.2,6.6c-0.1,2.7-0.3,5.2-0.5,7.6h-67.4c0,4.5,0.7,8.5,2.1,11.9
				c1.4,3.4,3.3,6.3,5.9,8.6c2.5,2.3,5.5,4.1,9.1,5.3s7.4,1.8,11.8,1.8c5,0,10.3-0.4,16-1.2c5.7-0.8,11.6-2,17.7-3.8v19.6
				c-2.6,0.7-5.5,1.4-8.6,2c-3.1,0.6-6.3,1.1-9.5,1.6c-3.2,0.5-6.5,0.8-9.8,1.1c-3.3,0.2-6.5,0.4-9.6,0.4c-7.8,0-14.8-1.1-21-3.3
				c-6.2-2.2-11.4-5.5-15.7-9.8c-4.3-4.3-7.6-9.7-9.9-16.1c-2.3-6.4-3.4-13.8-3.4-22.2c0-8.3,1.1-15.9,3.4-22.8
				c2.3-6.8,5.5-12.7,9.7-17.6c4.2-4.9,9.2-8.6,15.2-11.3c6-2.7,12.6-4,19.9-4c7.3,0,13.7,1.1,19.3,3.4c5.6,2.3,10.3,5.4,14,9.4
				c3.8,4,6.6,8.8,8.6,14.4C556.3,222.3,557.2,228.4,557.2,235z M532.2,231.5c0.1-4-0.4-7.6-1.5-10.5c-1.1-3-2.5-5.5-4.4-7.4
				c-1.9-2-4-3.4-6.5-4.3c-2.5-0.9-5.1-1.4-7.9-1.4c-6.2,0-11.3,2.1-15.2,6.2c-4,4.1-6.3,10-7.1,17.5H532.2z"/>
		</g>
	</g>
</g>
<g>
	
		<image style="overflow:visible;opacity:0.5;" width="486" height="181" xlink:href="CBE66E73.png"  transform="matrix(1 0 0 1 931.7383 140.5896)">
	</image>
	<g>
		<g>
			<path class="st8" d="M1040.1,294.2h-27.3l-10.9-32.5l-3.3-11.3l-3.3,11.6l-10.5,32.2h-27.4l-14.5-102.5h23.4l7.4,57.9l1.7,15.8
				l4.1-14.2l10.3-31.2h18.8l11,31l4.7,14.6l1.9-16.2l6.2-57.7h22.3L1040.1,294.2z"/>
			<path class="st8" d="M1161.8,242.1c0,8.1-1.1,15.5-3.4,22.1c-2.3,6.7-5.6,12.4-9.9,17.2c-4.3,4.8-9.6,8.5-15.8,11.1
				s-13.4,3.9-21.4,3.9c-7.6,0-14.4-1.1-20.4-3.3c-6-2.2-11.1-5.5-15.2-9.9c-4.2-4.4-7.4-9.9-9.6-16.5c-2.2-6.6-3.3-14.3-3.3-23.2
				c0-8.1,1.2-15.5,3.5-22.2s5.7-12.3,10-17.1c4.3-4.7,9.6-8.4,15.9-10.9c6.3-2.6,13.3-3.9,21.2-3.9c7.7,0,14.5,1.1,20.5,3.4
				c6,2.3,11.1,5.6,15.2,10c4.2,4.4,7.3,9.9,9.5,16.5C1160.7,225.9,1161.8,233.5,1161.8,242.1z M1136.2,242.7c0-10.6-2-18.6-6-24
				c-4-5.3-9.9-8-17.7-8c-4.3,0-8,0.8-11,2.5c-3,1.7-5.5,4-7.5,6.9c-2,2.9-3.4,6.3-4.3,10.2c-0.9,3.9-1.4,8.1-1.4,12.5
				c0,10.7,2.2,18.8,6.5,24.2c4.3,5.4,10.2,8.1,17.7,8.1c4.1,0,7.7-0.8,10.7-2.5c3-1.6,5.5-3.9,7.4-6.9c1.9-2.9,3.3-6.4,4.2-10.3
				C1135.7,251.5,1136.2,247.3,1136.2,242.7z"/>
			<path class="st8" d="M1249.1,231.5c0.1-3.8-0.1-7.1-0.6-9.8c-0.5-2.7-1.3-4.9-2.4-6.7c-1.1-1.7-2.5-3-4.1-3.8s-3.5-1.2-5.5-1.2
				c-3.6,0-7.4,1.5-11.3,4.5c-3.9,3-8.1,7.9-12.8,14.8v64.9h-25.2V191.6h22.3l0.9,14.9c1.7-2.6,3.6-5,5.7-7.1
				c2.1-2.1,4.5-3.9,7.1-5.4c2.6-1.5,5.5-2.7,8.6-3.5c3.2-0.8,6.6-1.2,10.4-1.2c5.2,0,9.8,0.9,13.8,2.7c4,1.8,7.4,4.4,10.1,7.9
				c2.7,3.5,4.7,7.9,6.1,13.2c1.3,5.3,1.9,11.4,1.7,18.3H1249.1z"/>
			<path class="st8" d="M1360.2,294.2l-37.8-51.3v51.3h-24.6V151.6h24.6V235l35.8-43.4h30.8l-41.6,46.7l45,55.8H1360.2z"/>
		</g>
	</g>
</g>
<g class="st0">
	
		<image style="overflow:visible;opacity:0.75;" width="532" height="90" xlink:href="CBE66E95.png"  transform="matrix(1 0 0 1 945.7241 119.0728)">
	</image>
	<g>
		<polyline class="st3" points="1453.5,184.9 1399.7,130.3 953.9,130.3 		"/>
	</g>
</g>
<g class="st0">
	
		<image style="overflow:visible;opacity:0.75;" width="635" height="87" xlink:href="CBE66E97.png"  transform="matrix(1 0 0 1 839.7462 29.5974)">
	</image>
	<g>
		<polyline class="st3" points="1452.7,90.7 1108.7,90.7 1059.3,41.3 848.3,41.3 		"/>
	</g>
</g>
<g class="st0">
	
		<image style="overflow:visible;opacity:0.75;" width="439" height="103" xlink:href="CBE66E94.png"  transform="matrix(1 0 0 1 1032.7462 318.5982)">
	</image>
	<g>
		<polyline class="st3" points="1446.7,397 1381,330.4 1082.3,330.4 1065.6,347 1041.1,347 		"/>
	</g>
</g>
<g class="st0">
	
		<image style="overflow:visible;opacity:0.75;" width="319" height="121" xlink:href="CBE66E93.png"  transform="matrix(1 0 0 1 1142.7462 361.5982)">
	</image>
	<g>
		<polyline class="st3" points="1437.2,458.3 1351.8,373 1161.5,373 1153.6,380.9 		"/>
	</g>
</g>
<g class="st0">
	
		<image style="overflow:visible;opacity:0.84;" width="197" height="198" xlink:href="CBE66E9D.png"  transform="matrix(1 0 0 1 743.7147 -49.4341)">
	</image>
	<g>
		
			<image style="overflow:visible;opacity:0.75;" width="66" height="65" xlink:href="CBE66E9F.png"  transform="matrix(1 0 0 1 808.7462 16.5974)">
		</image>
		<g>
			<circle class="st2" cx="834.6" cy="42.2" r="13.7"/>
			<circle class="st4" cx="834.6" cy="42.2" r="13.7"/>
		</g>
	</g>
</g>
<g class="st0">
	
		<image style="overflow:visible;opacity:0.75;" width="65" height="65" xlink:href="CBE66E9C.png"  transform="matrix(1 0 0 1 913.7241 105.0728)">
	</image>
	<g>
		<circle class="st5" cx="939.3" cy="130.3" r="13.7"/>
	</g>
</g>
<g class="st0">
	
		<image style="overflow:visible;opacity:0.75;" width="65" height="65" xlink:href="CBE66E96.png"  transform="matrix(1 0 0 1 1002.7462 321.5982)">
	</image>
	<g>
		<circle class="st5" cx="1028.5" cy="347.2" r="13.7"/>
	</g>
</g>
<g class="st0">
	
		<image style="overflow:visible;opacity:0.84;" width="197" height="197" xlink:href="CBE66EA9.png"  transform="matrix(1 0 0 1 1053.7147 299.5667)">
	</image>
	<g>
		
			<image style="overflow:visible;opacity:0.75;" width="65" height="66" xlink:href="CBE66EAA.png"  transform="matrix(1 0 0 1 1118.7462 364.5982)">
		</image>
		<g>
			<circle class="st2" cx="1144.5" cy="390.6" r="13.7"/>
			<circle class="st4" cx="1144.5" cy="390.6" r="13.7"/>
		</g>
	</g>
</g>
<g class="st0">
	
		<image style="overflow:visible;opacity:0.75;" width="66" height="65" xlink:href="CBE66EB8.png"  transform="matrix(1 0 0 1 1418.7462 441.5982)">
	</image>
	<g>
		<circle class="st5" cx="1444.8" cy="467.1" r="13.7"/>
	</g>
</g>
<g class="st0">
	
		<image style="overflow:visible;opacity:0.75;" width="65" height="66" xlink:href="CBE66E87.png"  transform="matrix(1 0 0 1 1427.7462 380.5982)">
	</image>
	<g>
		<circle class="st5" cx="1453.5" cy="406.4" r="13.7"/>
	</g>
</g>
<g class="st0">
	
		<image style="overflow:visible;opacity:0.75;" width="65" height="66" xlink:href="CBE66E88.png"  transform="matrix(1 0 0 1 1434.7241 166.0728)">
	</image>
	<g>
		<circle class="st5" cx="1460.4" cy="191.9" r="13.7"/>
	</g>
</g>
<g class="st0">
	
		<image style="overflow:visible;opacity:0.75;" width="65" height="65" xlink:href="CBE66E8B.png"  transform="matrix(1 0 0 1 1438.7241 65.0725)">
	</image>
	<g>
		<circle class="st5" cx="1464.4" cy="90.7" r="13.7"/>
	</g>
</g>
<line class="st9" x1="558.1" y1="436.7" x2="938.6" y2="436.7"/>
<g class="st0">
	
		<image style="overflow:visible;opacity:0.75;" width="65" height="66" xlink:href="CBE66E89.png"  transform="matrix(1 0 0 1 518.1373 410.7626)">
	</image>
	<g>
		<ellipse class="st5" cx="543.7" cy="436.7" rx="13.8" ry="13.7"/>
	</g>
</g>
<g class="st0">
	
		<image style="overflow:visible;opacity:0.75;" width="65" height="66" xlink:href="CBE66E8F.png"  transform="matrix(1 0 0 1 928.2465 410.5974)">
	</image>
	<g>
		<ellipse class="st5" cx="953.9" cy="436.7" rx="13.8" ry="13.7"/>
	</g>
</g>
</svg>
